<svg xmlns="http://www.w3.org/2000/svg" width="330.785" height="404.684" viewBox="179 -68.657 330.785 404.684"><g data-name="Group 42"><path d="M337.166 250.977c-72.434 0-131.154-58.5-131.154-130.666 0-72.165 58.72-130.666 131.154-130.666 61.245 0 112.68 41.823 127.112 98.364C450.018 23.368 392.336-25 323.335-25 243.621-25 179 39.548 179 119.172s64.62 144.173 144.335 144.173c61.185 0 113.473-38.03 134.478-91.714-20.02 46.652-66.498 79.346-120.647 79.346" fill="#60DD041d" fill-rule="evenodd" data-name="Path 72"/><g data-name="Group 26" transform="translate(317.708 122.691)" clip-path="url(&quot;#a&quot;)"><path d="M-71.316 42.527 85.887-51.218l101.858 170.809-157.203 93.744L-71.316 42.527z" fill="#60DD041d" fill-rule="evenodd" data-name="Rectangle 38"/></g><g data-name="Group 28" transform="translate(280.065 -.226)" clip-path="url(&quot;#b&quot;)"><path d="M-74.158 44.223 114.754-68.432l114.966 192.79L40.808 237.011-74.158 44.222z" fill="#60DD041d" fill-rule="evenodd" data-name="Rectangle 39"/></g><g data-name="Group 31"><g data-name="Group 30" transform="translate(333.709 37.2)" clip-path="url(&quot;#c&quot;)"><path d="M-17.895 10.672 30.01-17.896 58.577 30.01 10.672 58.576l-28.567-47.904z" fill="#60DD041d" fill-rule="evenodd" data-name="Rectangle 40"/></g></g></g><defs><clipPath id="a"><path d="M225.452 182.998c-3.956 3.153-7.137 7.161-9.51 11.629-8.478 15.964-36.538 72.608-49.164 145.07 0 0 24.083-71.271 38.403-90.473 0 0 32.87-59.556 62.486-21.154 0 0 9.518 12.53 15.54 29.616 0 0-12.07-47.624-22.484-65.198 0 0-8.52-14.907-21.606-14.909-4.14 0-8.735 1.49-13.665 5.42" data-name="Path 73" transform="translate(-166.778 -177.579)"/></clipPath><clipPath id="b"><path d="M121.517 133.28c155.562 65.088 141.57-103.492 141.57-103.492-21.806 130.178-141.57 103.492-141.57 103.492" data-name="Path 74" transform="translate(-121.517 -29.788)"/></clipPath><clipPath id="c"><path d="M186.017 95.129c0 11.233 9.107 20.34 20.34 20.34 11.234 0 20.341-9.107 20.341-20.34 0-11.235-9.107-20.341-20.34-20.341-11.234 0-20.341 9.106-20.341 20.34" data-name="Path 75" transform="translate(-186.017 -74.788)"/></clipPath></defs></svg>